<svg id="Layer_1" data-name="Layer 1" xmlns="http://www.w3.org/2000/svg" viewBox="0 0 200 200"><defs><style>.cls-1{fill:#e21313;}.cls-2{fill:none;stroke:#fff;stroke-miterlimit:10;}.cls-3{fill:#fff;}</style></defs><title>g logo 2</title><rect class="cls-1" x="47" y="38" width="99" height="67"/><polygon class="cls-1" points="47.61 93 146 92.29 99.14 176.82 47.61 93"/><polygon class="cls-2" points="63 101.5 99.55 162.82 132.51 101.5 140.5 101.5 140.5 43.5 53.5 42.5 52.5 101.5 63 101.5"/><path class="cls-3" d="M116,100.52a3.86,3.86,0,0,1-2.76,3.71,43.75,43.75,0,0,1-12.1,1.77c-7.33,0-13.37-1.88-18.07-6.48C78.9,95.46,76.33,89,76.34,81.32,76.37,66.7,86.28,56,102.47,56a33.88,33.88,0,0,1,9.64,1.33,2.61,2.61,0,0,1,1.75,3.26l0,.07a2.64,2.64,0,0,1-3.33,1.78,26.59,26.59,0,0,0-8.18-1.13C90.6,61.31,82.91,68.72,82.91,81c0,12.42,7.35,19.78,18.66,19.78,4.08,0,6.85-.58,8.29-1.32V84.85h-7.28a2.52,2.52,0,0,1-2.5-2.54h0a2.52,2.52,0,0,1,2.5-2.53h10.88A2.57,2.57,0,0,1,116,82.36Z"/></svg>