<svg id="Layer_1" data-name="Layer 1" xmlns="http://www.w3.org/2000/svg" viewBox="0 0 200 200"><defs><style>.cls-1{fill:#e21313;}.cls-2{fill:none;stroke:#fff;stroke-miterlimit:10;}.cls-3{fill:#fff;}</style></defs><title>red G</title><rect class="cls-1" x="47" y="38" width="99" height="67"/><polygon class="cls-1" points="47.61 93 146 92.29 99.14 176.82 47.61 93"/><polygon class="cls-2" points="63 101.5 99.55 162.82 132.51 101.5 140.5 101.5 140.5 43.5 53.5 42.5 52.5 101.5 63 101.5"/><path class="cls-3" d="M113,95.84a3,3,0,0,1-2.2,2.82,36.9,36.9,0,0,1-9.66,1.34c-5.85,0-10.68-1.43-14.43-4.92-3.33-3.09-5.37-8-5.37-13.83C81.36,70.13,89.27,62,102.2,62a28.63,28.63,0,0,1,7.7,1,2,2,0,0,1,1.39,2.48l0,.05a2.13,2.13,0,0,1-2.65,1.36,22.16,22.16,0,0,0-6.53-.86c-9.36,0-15.5,5.62-15.5,14.95s5.86,15,14.89,15a16.51,16.51,0,0,0,6.62-1V83.92h-5.81a2,2,0,0,1-2-1.92h0a2,2,0,0,1,2-1.93H111a2,2,0,0,1,2,2Z"/></svg>